<mxfile host="app.diagrams.net" modified="2023-08-07T17:42:28.125Z" agent="Mozilla/5.0 (Windows NT 10.0; Win64; x64; rv:109.0) Gecko/20100101 Firefox/115.0" etag="VNexN5Zpoq7nF1OaPpin" version="21.3.2">
  <diagram id="prtHgNgQTEPvFCAcTncT" name="Page-1">
    <mxGraphModel dx="1114" dy="574" grid="1" gridSize="10" guides="1" tooltips="1" connect="1" arrows="1" fold="1" page="1" pageScale="1" pageWidth="827" pageHeight="1169" math="0" shadow="0">
      <root>
        <mxCell id="0" />
        <mxCell id="1" parent="0" />
        <mxCell id="dNxyNK7c78bLwvsdeMH5-19" value="Agent Neighborhood" style="swimlane;html=1;childLayout=stackLayout;resizeParent=1;resizeParentMax=0;horizontal=0;startSize=20;horizontalStack=0;" parent="1" vertex="1">
          <mxGeometry x="19" y="40" width="940" height="480" as="geometry" />
        </mxCell>
        <mxCell id="dNxyNK7c78bLwvsdeMH5-20" value="The requesting agent" style="swimlane;html=1;startSize=20;horizontal=0;" parent="dNxyNK7c78bLwvsdeMH5-19" vertex="1">
          <mxGeometry x="20" width="920" height="160" as="geometry">
            <mxRectangle x="20" width="580" height="40" as="alternateBounds" />
          </mxGeometry>
        </mxCell>
        <mxCell id="R1tkOUwq-GIZknrMjJKB-24" style="edgeStyle=orthogonalEdgeStyle;rounded=0;orthogonalLoop=1;jettySize=auto;html=1;exitX=1;exitY=0.5;exitDx=0;exitDy=0;entryX=0;entryY=0.5;entryDx=0;entryDy=0;" edge="1" parent="dNxyNK7c78bLwvsdeMH5-20" source="dNxyNK7c78bLwvsdeMH5-23" target="R1tkOUwq-GIZknrMjJKB-22">
          <mxGeometry relative="1" as="geometry" />
        </mxCell>
        <mxCell id="dNxyNK7c78bLwvsdeMH5-23" value="" style="ellipse;whiteSpace=wrap;html=1;" parent="dNxyNK7c78bLwvsdeMH5-20" vertex="1">
          <mxGeometry x="41" y="90" width="40" height="40" as="geometry" />
        </mxCell>
        <mxCell id="dNxyNK7c78bLwvsdeMH5-24" value="&lt;div&gt;Send&lt;/div&gt;&lt;div&gt;request&lt;/div&gt;" style="rounded=0;whiteSpace=wrap;html=1;fontFamily=Helvetica;fontSize=12;fontColor=#000000;align=center;" parent="dNxyNK7c78bLwvsdeMH5-20" vertex="1">
          <mxGeometry x="162" y="80" width="80" height="60" as="geometry" />
        </mxCell>
        <mxCell id="R1tkOUwq-GIZknrMjJKB-26" style="edgeStyle=orthogonalEdgeStyle;rounded=0;orthogonalLoop=1;jettySize=auto;html=1;exitX=0;exitY=0.5;exitDx=0;exitDy=0;entryX=0.5;entryY=0;entryDx=0;entryDy=0;" edge="1" parent="dNxyNK7c78bLwvsdeMH5-20" source="R1tkOUwq-GIZknrMjJKB-20" target="R1tkOUwq-GIZknrMjJKB-22">
          <mxGeometry relative="1" as="geometry" />
        </mxCell>
        <mxCell id="R1tkOUwq-GIZknrMjJKB-20" value="&lt;div&gt;Mark agents in coalition&lt;br&gt;&lt;/div&gt;&lt;div&gt;unavailable&lt;br&gt;&lt;/div&gt;" style="rounded=0;whiteSpace=wrap;html=1;fontFamily=Helvetica;fontSize=12;fontColor=#000000;align=center;" vertex="1" parent="dNxyNK7c78bLwvsdeMH5-20">
          <mxGeometry x="482" y="20" width="80" height="60" as="geometry" />
        </mxCell>
        <mxCell id="R1tkOUwq-GIZknrMjJKB-25" style="edgeStyle=orthogonalEdgeStyle;rounded=0;orthogonalLoop=1;jettySize=auto;html=1;exitX=1;exitY=0.5;exitDx=0;exitDy=0;entryX=0;entryY=0.5;entryDx=0;entryDy=0;" edge="1" parent="dNxyNK7c78bLwvsdeMH5-20" source="R1tkOUwq-GIZknrMjJKB-22" target="dNxyNK7c78bLwvsdeMH5-24">
          <mxGeometry relative="1" as="geometry" />
        </mxCell>
        <mxCell id="R1tkOUwq-GIZknrMjJKB-22" value="" style="rhombus;whiteSpace=wrap;html=1;fontFamily=Helvetica;fontSize=12;fontColor=#000000;align=center;" vertex="1" parent="dNxyNK7c78bLwvsdeMH5-20">
          <mxGeometry x="102" y="90" width="40" height="40" as="geometry" />
        </mxCell>
        <mxCell id="R1tkOUwq-GIZknrMjJKB-29" style="edgeStyle=orthogonalEdgeStyle;rounded=0;orthogonalLoop=1;jettySize=auto;html=1;exitX=1;exitY=0.5;exitDx=0;exitDy=0;entryX=0;entryY=0.5;entryDx=0;entryDy=0;" edge="1" parent="dNxyNK7c78bLwvsdeMH5-20" source="R1tkOUwq-GIZknrMjJKB-27" target="R1tkOUwq-GIZknrMjJKB-28">
          <mxGeometry relative="1" as="geometry" />
        </mxCell>
        <mxCell id="R1tkOUwq-GIZknrMjJKB-27" value="Update coalition members" style="rounded=0;whiteSpace=wrap;html=1;fontFamily=Helvetica;fontSize=12;fontColor=#000000;align=center;" vertex="1" parent="dNxyNK7c78bLwvsdeMH5-20">
          <mxGeometry x="602" y="80" width="80" height="60" as="geometry" />
        </mxCell>
        <mxCell id="R1tkOUwq-GIZknrMjJKB-31" value="" style="edgeStyle=orthogonalEdgeStyle;rounded=0;orthogonalLoop=1;jettySize=auto;html=1;entryX=0;entryY=0.5;entryDx=0;entryDy=0;" edge="1" parent="dNxyNK7c78bLwvsdeMH5-20" source="R1tkOUwq-GIZknrMjJKB-28" target="R1tkOUwq-GIZknrMjJKB-32">
          <mxGeometry relative="1" as="geometry">
            <mxPoint x="841" y="110" as="targetPoint" />
          </mxGeometry>
        </mxCell>
        <mxCell id="R1tkOUwq-GIZknrMjJKB-28" value="Mark coaltion formation as done" style="rounded=0;whiteSpace=wrap;html=1;fontFamily=Helvetica;fontSize=12;fontColor=#000000;align=center;" vertex="1" parent="dNxyNK7c78bLwvsdeMH5-20">
          <mxGeometry x="721" y="80" width="80" height="60" as="geometry" />
        </mxCell>
        <mxCell id="R1tkOUwq-GIZknrMjJKB-32" value="" style="ellipse;whiteSpace=wrap;html=1;strokeWidth=3;" vertex="1" parent="dNxyNK7c78bLwvsdeMH5-20">
          <mxGeometry x="841" y="90" width="40" height="40" as="geometry" />
        </mxCell>
        <mxCell id="R1tkOUwq-GIZknrMjJKB-14" value="" style="endArrow=open;dashed=1;html=1;dashPattern=1 3;strokeWidth=2;rounded=0;exitX=0.5;exitY=1;exitDx=0;exitDy=0;entryX=0.5;entryY=0;entryDx=0;entryDy=0;endFill=0;" edge="1" parent="dNxyNK7c78bLwvsdeMH5-19" source="dNxyNK7c78bLwvsdeMH5-24" target="R1tkOUwq-GIZknrMjJKB-11">
          <mxGeometry width="50" height="50" relative="1" as="geometry">
            <mxPoint x="332" y="290" as="sourcePoint" />
            <mxPoint x="382" y="240" as="targetPoint" />
          </mxGeometry>
        </mxCell>
        <mxCell id="R1tkOUwq-GIZknrMjJKB-18" value="" style="endArrow=open;dashed=1;html=1;dashPattern=1 3;strokeWidth=2;rounded=0;exitX=0.5;exitY=0;exitDx=0;exitDy=0;endFill=0;entryX=0.5;entryY=1;entryDx=0;entryDy=0;" edge="1" parent="dNxyNK7c78bLwvsdeMH5-19" source="R1tkOUwq-GIZknrMjJKB-5" target="R1tkOUwq-GIZknrMjJKB-20">
          <mxGeometry width="50" height="50" relative="1" as="geometry">
            <mxPoint x="552" y="250" as="sourcePoint" />
            <mxPoint x="542" y="100" as="targetPoint" />
          </mxGeometry>
        </mxCell>
        <mxCell id="dNxyNK7c78bLwvsdeMH5-21" value="&lt;div&gt;A requested agent&lt;/div&gt;" style="swimlane;html=1;startSize=20;horizontal=0;" parent="dNxyNK7c78bLwvsdeMH5-19" vertex="1">
          <mxGeometry x="20" y="160" width="920" height="160" as="geometry">
            <mxRectangle x="20" y="130" width="580" height="30" as="alternateBounds" />
          </mxGeometry>
        </mxCell>
        <mxCell id="R1tkOUwq-GIZknrMjJKB-4" style="edgeStyle=orthogonalEdgeStyle;rounded=0;orthogonalLoop=1;jettySize=auto;html=1;exitX=1;exitY=0.5;exitDx=0;exitDy=0;entryX=0;entryY=0.5;entryDx=0;entryDy=0;" edge="1" parent="dNxyNK7c78bLwvsdeMH5-21" source="dNxyNK7c78bLwvsdeMH5-26" target="dNxyNK7c78bLwvsdeMH5-36">
          <mxGeometry relative="1" as="geometry" />
        </mxCell>
        <mxCell id="dNxyNK7c78bLwvsdeMH5-26" value="Calculate&lt;br&gt;&lt;div&gt;coalition&lt;/div&gt;&lt;div&gt;value&lt;br&gt;&lt;/div&gt;" style="rounded=0;whiteSpace=wrap;html=1;fontFamily=Helvetica;fontSize=12;fontColor=#000000;align=center;" parent="dNxyNK7c78bLwvsdeMH5-21" vertex="1">
          <mxGeometry x="281" y="50" width="80" height="60" as="geometry" />
        </mxCell>
        <mxCell id="R1tkOUwq-GIZknrMjJKB-6" style="edgeStyle=orthogonalEdgeStyle;rounded=0;orthogonalLoop=1;jettySize=auto;html=1;exitX=0.5;exitY=0;exitDx=0;exitDy=0;entryX=0;entryY=0.5;entryDx=0;entryDy=0;" edge="1" parent="dNxyNK7c78bLwvsdeMH5-21" source="dNxyNK7c78bLwvsdeMH5-36" target="R1tkOUwq-GIZknrMjJKB-5">
          <mxGeometry relative="1" as="geometry">
            <Array as="points">
              <mxPoint x="421" y="50" />
            </Array>
          </mxGeometry>
        </mxCell>
        <mxCell id="R1tkOUwq-GIZknrMjJKB-7" style="edgeStyle=orthogonalEdgeStyle;rounded=0;orthogonalLoop=1;jettySize=auto;html=1;exitX=0.5;exitY=1;exitDx=0;exitDy=0;entryX=0;entryY=0.5;entryDx=0;entryDy=0;" edge="1" parent="dNxyNK7c78bLwvsdeMH5-21" source="dNxyNK7c78bLwvsdeMH5-36" target="dNxyNK7c78bLwvsdeMH5-34">
          <mxGeometry relative="1" as="geometry">
            <Array as="points">
              <mxPoint x="421" y="110" />
            </Array>
          </mxGeometry>
        </mxCell>
        <mxCell id="dNxyNK7c78bLwvsdeMH5-36" value="" style="rhombus;whiteSpace=wrap;html=1;fontFamily=Helvetica;fontSize=12;fontColor=#000000;align=center;" parent="dNxyNK7c78bLwvsdeMH5-21" vertex="1">
          <mxGeometry x="401" y="60" width="40" height="40" as="geometry" />
        </mxCell>
        <mxCell id="R1tkOUwq-GIZknrMjJKB-39" value="" style="edgeStyle=orthogonalEdgeStyle;rounded=0;orthogonalLoop=1;jettySize=auto;html=1;" edge="1" parent="dNxyNK7c78bLwvsdeMH5-21" source="dNxyNK7c78bLwvsdeMH5-34" target="R1tkOUwq-GIZknrMjJKB-38">
          <mxGeometry relative="1" as="geometry" />
        </mxCell>
        <mxCell id="dNxyNK7c78bLwvsdeMH5-34" value="&lt;div&gt;Send&lt;/div&gt;&lt;div&gt;admission&lt;br&gt;&lt;/div&gt;" style="rounded=0;whiteSpace=wrap;html=1;fontFamily=Helvetica;fontSize=12;fontColor=#000000;align=center;" parent="dNxyNK7c78bLwvsdeMH5-21" vertex="1">
          <mxGeometry x="602" y="80" width="80" height="60" as="geometry" />
        </mxCell>
        <mxCell id="R1tkOUwq-GIZknrMjJKB-47" style="edgeStyle=orthogonalEdgeStyle;rounded=0;orthogonalLoop=1;jettySize=auto;html=1;exitX=1;exitY=0.5;exitDx=0;exitDy=0;entryX=0;entryY=0.5;entryDx=0;entryDy=0;" edge="1" parent="dNxyNK7c78bLwvsdeMH5-21" source="R1tkOUwq-GIZknrMjJKB-5" target="R1tkOUwq-GIZknrMjJKB-48">
          <mxGeometry relative="1" as="geometry">
            <mxPoint x="841" y="50" as="targetPoint" />
          </mxGeometry>
        </mxCell>
        <mxCell id="R1tkOUwq-GIZknrMjJKB-5" value="&lt;div&gt;Mark refused&lt;/div&gt;&lt;div&gt;agent &amp;amp;&lt;br&gt;&lt;/div&gt;&lt;div&gt;send refusal&lt;br&gt;&lt;/div&gt;" style="rounded=0;whiteSpace=wrap;html=1;fontFamily=Helvetica;fontSize=12;fontColor=#000000;align=center;" vertex="1" parent="dNxyNK7c78bLwvsdeMH5-21">
          <mxGeometry x="482" y="20" width="80" height="60" as="geometry" />
        </mxCell>
        <mxCell id="R1tkOUwq-GIZknrMjJKB-8" value="" style="endArrow=none;html=1;rounded=0;exitX=0;exitY=1;exitDx=0;exitDy=0;strokeWidth=3;entryX=1;entryY=0;entryDx=0;entryDy=0;" edge="1" parent="dNxyNK7c78bLwvsdeMH5-21" source="dNxyNK7c78bLwvsdeMH5-36" target="dNxyNK7c78bLwvsdeMH5-36">
          <mxGeometry width="50" height="50" relative="1" as="geometry">
            <mxPoint x="382" y="120" as="sourcePoint" />
            <mxPoint x="432" y="70" as="targetPoint" />
          </mxGeometry>
        </mxCell>
        <mxCell id="R1tkOUwq-GIZknrMjJKB-10" value="" style="endArrow=none;html=1;rounded=0;exitX=0;exitY=0;exitDx=0;exitDy=0;strokeWidth=3;entryX=1;entryY=1;entryDx=0;entryDy=0;" edge="1" parent="dNxyNK7c78bLwvsdeMH5-21" source="dNxyNK7c78bLwvsdeMH5-36" target="dNxyNK7c78bLwvsdeMH5-36">
          <mxGeometry width="50" height="50" relative="1" as="geometry">
            <mxPoint x="421" y="100" as="sourcePoint" />
            <mxPoint x="442" y="80" as="targetPoint" />
          </mxGeometry>
        </mxCell>
        <mxCell id="R1tkOUwq-GIZknrMjJKB-15" style="edgeStyle=orthogonalEdgeStyle;rounded=0;orthogonalLoop=1;jettySize=auto;html=1;exitX=1;exitY=0.5;exitDx=0;exitDy=0;entryX=0;entryY=0.5;entryDx=0;entryDy=0;" edge="1" parent="dNxyNK7c78bLwvsdeMH5-21" source="R1tkOUwq-GIZknrMjJKB-11" target="dNxyNK7c78bLwvsdeMH5-26">
          <mxGeometry relative="1" as="geometry" />
        </mxCell>
        <mxCell id="R1tkOUwq-GIZknrMjJKB-11" value="&lt;div&gt;Handle&lt;/div&gt;&lt;div&gt;message&lt;br&gt;&lt;/div&gt;" style="rounded=0;whiteSpace=wrap;html=1;fontFamily=Helvetica;fontSize=12;fontColor=#000000;align=center;" vertex="1" parent="dNxyNK7c78bLwvsdeMH5-21">
          <mxGeometry x="162" y="50" width="80" height="60" as="geometry" />
        </mxCell>
        <mxCell id="R1tkOUwq-GIZknrMjJKB-43" style="edgeStyle=orthogonalEdgeStyle;rounded=0;orthogonalLoop=1;jettySize=auto;html=1;exitX=1;exitY=0.5;exitDx=0;exitDy=0;entryX=0;entryY=0.5;entryDx=0;entryDy=0;" edge="1" parent="dNxyNK7c78bLwvsdeMH5-21" source="R1tkOUwq-GIZknrMjJKB-38" target="R1tkOUwq-GIZknrMjJKB-41">
          <mxGeometry relative="1" as="geometry" />
        </mxCell>
        <mxCell id="R1tkOUwq-GIZknrMjJKB-38" value="&lt;div&gt;Update&lt;/div&gt;&lt;div&gt;coalition&lt;/div&gt;&lt;div&gt;members&lt;br&gt;&lt;/div&gt;" style="rounded=0;whiteSpace=wrap;html=1;fontFamily=Helvetica;fontSize=12;fontColor=#000000;align=center;" vertex="1" parent="dNxyNK7c78bLwvsdeMH5-21">
          <mxGeometry x="721" y="80" width="80" height="60" as="geometry" />
        </mxCell>
        <mxCell id="R1tkOUwq-GIZknrMjJKB-41" value="" style="ellipse;whiteSpace=wrap;html=1;strokeWidth=3;" vertex="1" parent="dNxyNK7c78bLwvsdeMH5-21">
          <mxGeometry x="841" y="90" width="40" height="40" as="geometry" />
        </mxCell>
        <mxCell id="R1tkOUwq-GIZknrMjJKB-48" value="" style="ellipse;whiteSpace=wrap;html=1;strokeWidth=3;" vertex="1" parent="dNxyNK7c78bLwvsdeMH5-21">
          <mxGeometry x="841" y="30" width="40" height="40" as="geometry" />
        </mxCell>
        <mxCell id="dNxyNK7c78bLwvsdeMH5-22" value="&lt;div&gt;Coalition of requested agent&lt;/div&gt;" style="swimlane;html=1;startSize=20;horizontal=0;" parent="dNxyNK7c78bLwvsdeMH5-19" vertex="1">
          <mxGeometry x="20" y="320" width="920" height="160" as="geometry" />
        </mxCell>
        <mxCell id="R1tkOUwq-GIZknrMjJKB-44" style="edgeStyle=orthogonalEdgeStyle;rounded=0;orthogonalLoop=1;jettySize=auto;html=1;exitX=1;exitY=0.5;exitDx=0;exitDy=0;entryX=0;entryY=0.5;entryDx=0;entryDy=0;" edge="1" parent="dNxyNK7c78bLwvsdeMH5-22" source="R1tkOUwq-GIZknrMjJKB-34" target="R1tkOUwq-GIZknrMjJKB-45">
          <mxGeometry relative="1" as="geometry">
            <mxPoint x="841" y="50" as="targetPoint" />
          </mxGeometry>
        </mxCell>
        <mxCell id="R1tkOUwq-GIZknrMjJKB-34" value="&lt;div&gt;Mark refused agent&lt;br&gt;&lt;/div&gt;" style="rounded=0;whiteSpace=wrap;html=1;fontFamily=Helvetica;fontSize=12;fontColor=#000000;align=center;" vertex="1" parent="dNxyNK7c78bLwvsdeMH5-22">
          <mxGeometry x="482" y="20" width="80" height="60" as="geometry" />
        </mxCell>
        <mxCell id="R1tkOUwq-GIZknrMjJKB-42" style="edgeStyle=orthogonalEdgeStyle;rounded=0;orthogonalLoop=1;jettySize=auto;html=1;exitX=1;exitY=0.5;exitDx=0;exitDy=0;entryX=0;entryY=0.5;entryDx=0;entryDy=0;" edge="1" parent="dNxyNK7c78bLwvsdeMH5-22" source="R1tkOUwq-GIZknrMjJKB-36" target="R1tkOUwq-GIZknrMjJKB-40">
          <mxGeometry relative="1" as="geometry" />
        </mxCell>
        <mxCell id="R1tkOUwq-GIZknrMjJKB-36" value="&lt;div&gt;Update&lt;/div&gt;&lt;div&gt;coalition&lt;/div&gt;&lt;div&gt;members&lt;br&gt;&lt;/div&gt;" style="rounded=0;whiteSpace=wrap;html=1;fontFamily=Helvetica;fontSize=12;fontColor=#000000;align=center;" vertex="1" parent="dNxyNK7c78bLwvsdeMH5-22">
          <mxGeometry x="602" y="80" width="80" height="60" as="geometry" />
        </mxCell>
        <mxCell id="R1tkOUwq-GIZknrMjJKB-40" value="" style="ellipse;whiteSpace=wrap;html=1;strokeWidth=3;" vertex="1" parent="dNxyNK7c78bLwvsdeMH5-22">
          <mxGeometry x="841" y="90" width="40" height="40" as="geometry" />
        </mxCell>
        <mxCell id="R1tkOUwq-GIZknrMjJKB-45" value="" style="ellipse;whiteSpace=wrap;html=1;strokeWidth=3;" vertex="1" parent="dNxyNK7c78bLwvsdeMH5-22">
          <mxGeometry x="841" y="30" width="40" height="40" as="geometry" />
        </mxCell>
        <mxCell id="R1tkOUwq-GIZknrMjJKB-19" value="" style="endArrow=open;dashed=1;html=1;dashPattern=1 3;strokeWidth=2;rounded=0;exitX=0.5;exitY=0;exitDx=0;exitDy=0;endFill=0;entryX=0.5;entryY=1;entryDx=0;entryDy=0;" edge="1" parent="dNxyNK7c78bLwvsdeMH5-19" source="dNxyNK7c78bLwvsdeMH5-34" target="R1tkOUwq-GIZknrMjJKB-27">
          <mxGeometry width="50" height="50" relative="1" as="geometry">
            <mxPoint x="552" y="190" as="sourcePoint" />
            <mxPoint x="662" y="150" as="targetPoint" />
          </mxGeometry>
        </mxCell>
        <mxCell id="R1tkOUwq-GIZknrMjJKB-16" value="" style="endArrow=open;dashed=1;html=1;dashPattern=1 3;strokeWidth=2;rounded=0;exitX=0.5;exitY=1;exitDx=0;exitDy=0;endFill=0;entryX=0.5;entryY=0;entryDx=0;entryDy=0;" edge="1" parent="dNxyNK7c78bLwvsdeMH5-19" source="R1tkOUwq-GIZknrMjJKB-5" target="R1tkOUwq-GIZknrMjJKB-34">
          <mxGeometry width="50" height="50" relative="1" as="geometry">
            <mxPoint x="541.5" y="250" as="sourcePoint" />
            <mxPoint x="543" y="340" as="targetPoint" />
          </mxGeometry>
        </mxCell>
        <mxCell id="R1tkOUwq-GIZknrMjJKB-17" value="" style="endArrow=open;dashed=1;html=1;dashPattern=1 3;strokeWidth=2;rounded=0;exitX=0.5;exitY=1;exitDx=0;exitDy=0;endFill=0;entryX=0.5;entryY=0;entryDx=0;entryDy=0;" edge="1" parent="dNxyNK7c78bLwvsdeMH5-19" source="dNxyNK7c78bLwvsdeMH5-34" target="R1tkOUwq-GIZknrMjJKB-36">
          <mxGeometry width="50" height="50" relative="1" as="geometry">
            <mxPoint x="241" y="130" as="sourcePoint" />
            <mxPoint x="662" y="400" as="targetPoint" />
          </mxGeometry>
        </mxCell>
      </root>
    </mxGraphModel>
  </diagram>
</mxfile>
